<svg xmlns:dc="http://purl.org/dc/elements/1.1/" xmlns:cc="http://creativecommons.org/ns#" xmlns:rdf="http://www.w3.org/1999/02/22-rdf-syntax-ns#" xmlns:svg="http://www.w3.org/2000/svg" xmlns="http://www.w3.org/2000/svg" xmlns:sodipodi="http://sodipodi.sourceforge.net/DTD/sodipodi-0.dtd" xmlns:inkscape="http://www.inkscape.org/namespaces/inkscape" width="960" height="960" viewBox="0 0 16 16" class="bi bi-alarm" fill="currentcolor" id="svg12" sodipodi:docname="alarm.svg" inkscape:version="0.92.5 (2060ec1f9f, 2020-04-08)"><defs id="defs16" /><sodipodi:namedview pagecolor="#ffffff" bordercolor="#666666" borderopacity="1" objecttolerance="10" gridtolerance="10" guidetolerance="10" inkscape:pageopacity="0" inkscape:pageshadow="2" inkscape:window-width="1920" inkscape:window-height="1022" id="namedview14" showgrid="false" inkscape:zoom=".69532167" inkscape:cx="310.35351" inkscape:cy="365.64004" inkscape:window-x="0" inkscape:window-y="0" inkscape:window-maximized="1" inkscape:current-layer="svg12" /><ellipse style="fill:#fff;stroke:#fff;stroke-width:.02680284;stroke-opacity:1" id="path40" cx="7.9939013" cy="9.0248117" rx="6.0712576" ry="6.1072121" /><path fill-rule="evenodd" d="M8 15A6 6 0 1 0 8 3a6 6 0 0 0 0 12zm0 1A7 7 0 1 0 8 2a7 7 0 0 0 0 14z" id="path2" /><path fill-rule="evenodd" d="M8 4.5a.5.5.0 0 1 .5.5v4a.5.5.0 0 1-.053.224l-1.5 3a.5.5.0 1 1-.894-.448L7.5 8.882V5a.5.5.0 0 1 .5-.5z" id="path4" /><path d="M.86 5.387A2.5 2.5.0 1 1 4.387 1.86 8.035 8.035.0 0 0 .86 5.387zM11.613 1.86a2.5 2.5.0 1 1 3.527 3.527 8.035 8.035.0 0 0-3.527-3.527z" id="path6" /><path fill-rule="evenodd" d="M11.646 14.146a.5.5.0 0 1 .708.0l1 1a.5.5.0 0 1-.708.708l-1-1a.5.5.0 0 1 0-.708zm-7.292.0a.5.5.0 0 0-.708.0l-1 1a.5.5.0 0 0 .708.708l1-1a.5.5.0 0 0 0-.708zM5.5.5A.5.5.0 0 1 6 0h4a.5.5.0 0 1 0 1H6a.5.5.0 0 1-.5-.5z" id="path8" /><path d="M7 1h2v2H7V1z" id="path10" /></svg>