<svg version="1.0" xmlns="http://www.w3.org/2000/svg" width="700pt" height="700pt" viewBox="0 0 700 700"><g transform="translate(0.000000,700.000000) scale(0.100000,-0.100000)" fill="#000" stroke="none"><path d="M2552 6987c-94-34-147-118-140-222 5-78 38-132 105-172l48-28 248-3 247-3v-233-232l-122-22c-630-110-1264-463-17e2-946-419-464-672-999-769-1626-20-125-23-185-24-430 0-186 5-318 13-380 101-715 384-1291 879-1789l174-175-190-190c-191-193-213-221-225-288-22-123 90-248 224-248 75 0 125 38 344 258l208 210 75-45c350-207 730-337 1168-4e2 169-24 601-24 770 0 438 63 818 193 1168 4e2l75 45 208-210C5555 38 5605 0 5680 0c87 0 162 46 203 124 26 51 28 136 3 186-10 19-104 121-208 227l-191 191 123 119c540 519 860 1171 936 1906 21 209 15 550-15 742-95 628-349 1165-769 1631-436 483-1070 836-1699 946l-123 22v232 233l248 3 247 3 48 28c66 39 1e2 93 105 168 8 108-51 199-147 227-55 17-1842 15-1889-1zm1112-1307c660-43 1233-304 1701-774 421-424 683-977 746-1574 15-147 6-532-15-667-51-316-166-644-317-905-408-703-1098-1173-1899-1295-145-23-477-31-626-15-459 46-894 206-1254 458-189 133-433 365-571 542-289 370-476 825-534 1290-18 145-20 465-4 608 84 768 513 1473 1154 1899 385 255 823 404 1275 433 169 10 182 10 344 0z"/><path d="M3399 5002c-39-20-62-41-84-77l-30-48-5-891-5-891-324-645c-307-612-324-648-324-7e2.0-124 97-220 223-220 49 0 133 42 163 81 14 19 177 339 364 712l338 678v938 938l-30 48c-38 62-114 105-185 105-33 0-64-9-101-28z"/><path d="M899 6545c-367-69-684-328-819-667-59-150-74-236-74-413 1-139 4-173 26-256 36-133 78-229 146-334 56-85 175-225 192-225 4 0 40 57 80 128 327 577 814 1057 1379 1360l91 49-77 74c-140 134-287 215-481 266-122 32-343 41-463 18z"/><path d="M5698 6540c-225-47-384-129-541-279l-77-74 91-49c568-305 1050-781 1381-1364 39-68 74-124 78-124 17 0 136 140 192 225 386 592 113 1391-556 1624-178 62-394 78-568 41z"/></g></svg>